<svg version="1" xmlns="http://www.w3.org/2000/svg" width="400" height="400" viewBox="0 0 300.000000 300.000000"><path d="M138.7 1.7c-.2.2-.2 2.3 0 4.8l.4 4.5h-4c-3.2 0-4.1-.4-4.2-1.8-.1-2.5-.9-6.5-1.4-7-.2-.2-.9-.1-1.5.3-1 .6-.7 9.6.5 16.2.2 1 .4 2.6.4 3.5.1 1.2.6 1.5 1.7 1.1 1.2-.4 1.4-1.6 1.1-4.5-.5-4.2-.1-4.7 4.8-5.1 2.9-.2 3 0 3.3 4 .2 3.4.7 4.3 2.1 4.3 1.5 0 1.8-.6 1.5-3.3-.8-6.1-1.2-10.2-1.3-13.8-.1-2.5-.6-3.6-1.6-3.6-.8 0-1.7.2-1.8.4zM147.9 4.6c0 2.2-.2 6.9-.3 10.6-.3 6-.1 6.8 1.5 6.8 1.3 0 1.9-.9 2.1-3.7.3-3.5.4-3.6 1.8-1.9 3.9 4.8 6.1 6.7 7 6.1.6-.4.3-1.7-1-3.5-2.5-3.5-2.5-3.5 0-6s2.6-7.2 0-9.5c-1-.9-4-2-6.5-2.2L148 .7l-.1 3.9zM157 6c1.1 2 .6 5.9-.8 6.1-4.9.9-5.2.7-5.2-3.7 0-4 .2-4.4 2.5-4.4 1.4 0 2.9.8 3.5 2zM166.9 3.7c-.1.7-.2 1.6-.3 2-.1.5-.6 3.7-1 7.3-.4 3.6-1 7.3-1.2 8.2-.4 1.3 0 1.8 1.5 1.8 1.6 0 2.1-.7 2.2-2.8 0-1.5.2-3.6.4-4.7.3-1.1.7-4.5 1.1-7.6.5-4.7.4-5.6-1-5.6-.9 0-1.7.6-1.7 1.4zM175.4 7.6c1.7 13 2.4 16.6 3.3 17.5.8.8 2.9-1.5 7.2-8 3.4-4.9 6.1-9.2 6.1-9.5 0-.2-.6-.6-1.4-.9-1-.4-2.9 1.7-5.8 6.1l-4.3 6.6-.8-4.4c-1.7-9.4-2.2-11.4-3.6-11.8-1.1-.4-1.2.6-.7 4.4zM113.3 5.3c-4.8 1.1-6.1 4-1.7 3.5 2.4-.3 2.7.2 3.9 4.7.7 2.7 1.5 6.6 1.9 8.6.5 2.9 1 3.6 2.4 3.2 1.8-.4 1.8-.7 0-7.6-2.3-9.5-2.3-10.4.7-11.1 1.4-.4 2.3-1.1 2-1.6-.7-1.2-3.5-1.1-9.2.3zM195.9 11.7c-3.8 9.9-5.9 15.6-5.9 16.2 0 .8 8.8 4.1 10.8 4.1 2.6 0 1-2.1-2.8-3.6-2.2-.9-4-1.8-4-1.9 0-.2.4-1.5 1-2.9.9-2.5 1-2.5 5.1-1.1 5.1 1.8 4.9 1.8 4.9 0 0-.8-1.7-1.9-4-2.6-2.2-.7-4-1.3-4-1.5 0-.1.4-1.4 1-2.8 1.1-2.9 2.4-3.2 6.2-1.2 2.6 1.4 3.8 1.2 3.8-.6 0-.9-4-2.8-8.7-4.2-1.9-.6-2.5-.2-3.4 2.1zM83.2 16.1C71.4 22 77 38.8 89.9 35.9c8.6-1.9 12.1-12.1 6.2-18-1.6-1.6-3.5-2.9-4.3-3-.7 0-2.1-.2-3-.4-.9-.2-3.4.6-5.6 1.6zm7.5 1.9c3 1.1 5.3 4.5 5.3 7.8 0 5.2-7.2 9-12.2 6.5-1.6-.7-2.8-1.5-2.8-1.6 0-.1-.4-1.7-.9-3.4-.8-2.6-.6-3.7 1.1-5.8 1.1-1.5 3-3.1 4.2-3.5 1.1-.5 2.1-.9 2.2-.9.1-.1 1.5.4 3.1.9zM222 21.5c0 .8.9 1.9 2 2.5 1.8 1 1.7 1.4-3 8.7-3.4 5.3-4.6 7.9-3.8 8.4 1.8 1.1 2.4.5 6.9-7.2 3.1-5.2 4.6-6.8 5.8-6.4 2.6 1.1 3.3 1 3.7 0 .4-.9-9.4-7.5-11-7.5-.3 0-.6.7-.6 1.5zM60.1 30.2c-5.2 2.6-6 4.2-3.4 7.1 1.1 1.2 3.7 4.8 5.8 7.9 3.9 6 4.3 6.1 8.5 2.6 8.2-6.7 5.7-17.5-4.4-19.4-1.2-.2-4.1.6-6.5 1.8zm7.7 1.9c1.9.6 3.5 2.2 4.3 4.1 1.1 2.6 1 3.5-.6 6.4-1 1.9-2.4 3.4-3.1 3.4-1.6 0-9.5-11-8.7-12.2.3-.5 1.5-1.3 2.7-1.8 1.1-.5 2.1-.9 2.2-.9.1-.1 1.5.4 3.2 1zM232.3 37.6c-3.2 4.1-5.8 8-5.8 8.6 0 2.4 2.1 1.6 4.6-1.8l2.7-3.4 3.1 2.6 3.2 2.6-2.7 3.5c-2 2.6-2.4 3.7-1.5 4.6 1.3 1.3.8 1.8 9.5-9.3 3.7-4.7 4.6-6.4 3.5-7-.9-.6-2.3.2-4.4 2.6l-3 3.4-2.8-2.5c-2.9-2.6-2.7-4.6.7-7.5 2-1.6 2-2.6.2-3.3-.9-.4-3.5 2.1-7.3 6.9zM140 36.7c-2.7 1.1-4 3.7-3.4 6.8 1.8 8.3 12.4 6.9 12.4-1.7 0-4.2-4.6-6.8-9-5.1zM160 39c-2.6 2.6-2.5 5.1.1 8.4 3.8 4.8 10.9 2 10.9-4.3 0-5.5-7-8.1-11-4.1zM47.5 40c-.4.6 1.7 3.3 4.5 6.1 2.9 2.8 5 5.2 4.8 5.4-.1.2-3.7-.3-7.8-1-9.1-1.7-10.1-1.7-12-.5-1.2.8-.1 2.4 5.9 8.4 5.9 5.9 7.8 7.3 8.8 6.4.8-.6 1-1.4.6-1.7-.4-.4-2.8-2.8-5.3-5.4l-4.5-4.8 4 .5c2.2.4 6.3 1 9 1.4 9.7 1.6 9.8-.1.7-9.1-7-7-7.7-7.4-8.7-5.7zM118.9 40.2c-3.9 1.3-5.4 5.2-3.2 8.9 1.7 2.8 2.8 3.3 6.8 2.9 2.8-.2 5.4-3.9 4.8-6.9-.8-4.7-3.8-6.5-8.4-4.9zM181.1 44.5c-3.3 4.3-.4 10.5 4.9 10.5 5.6 0 8.4-6.7 4.5-10.6-3.1-3.1-6.8-3.1-9.4.1zM246.9 51l-7.3 7 3.9 4c3.6 3.7 6.5 5.1 6.5 3.2 0-.5-1.3-2.1-3-3.7l-3-2.9 2.2-2.3 2.2-2.3 3.2 3.1c4.5 4.4 6.6 2.8 2.3-1.7l-3.3-3.4 2.2-2.2 2.2-2.2 3.4 3.3c4.9 4.8 5.9 2 1-3-2.1-2.1-4.1-3.9-4.6-3.9-.4 0-4 3.2-7.9 7zM98 47.7c-4.2 1.5-5.2 6.6-2 10.1 2.6 2.7 6.4 2.8 9 .2 5-5-.2-12.7-7-10.3zM202.2 52.8c-4.3 3.6-3.1 9.9 2 11.3 5.4 1.4 9.8-4.5 7-9.4-.9-1.5-1.9-2.7-2.2-2.8-.3 0-1.5-.2-2.7-.5-1.2-.2-3 .4-4.1 1.4zM138.7 57.7c-2 .5-3.9 4.5-3.2 6.6 1 2.5 4 3.6 6.6 2.3 4.8-2.4 1.8-10.1-3.4-8.9zM154.9 58.3c-2.7 1.4-3.7 5.1-1.9 7.3 2.9 3.4 9.9-.2 8.5-4.5-.9-3.1-3.7-4.2-6.6-2.8zM261 62.2c-3.6 2.7-7.4 5.6-8.5 6.4-1.4 1-1.6 1.7-.8 2.5.9.9 1.8.8 3.8-.5 3.5-2.3 4.1-1.5 2.6 3.4-1.1 3.9-.9 6 .8 6 .5 0 1.2-1.5 1.7-3.3.9-2.8 1.4-3.2 4.7-3.4 4.6-.1 6.3-1.4 7.1-5.5.5-2.5 0-4-2-7-1.5-2.1-2.7-3.8-2.8-3.7 0 0-3 2.3-6.6 5.1zm7.7 1c1.5 2.1.9 5-1.3 6.5-1.9 1.2-2.4 1.1-4.5-.6l-2.4-2 3-2.5c3.5-2.9 3.9-3 5.2-1.4zM78.7 59.7c-4.8 2.4-4.7 8.3.1 10.6 3.8 1.8 7 1 8.6-2.1 1.2-2.3 1.2-3.3.1-5.8-1.5-3.7-5-4.7-8.8-2.7zM169.5 62c-3.5 3.9.4 9.1 5.5 7.5 2.7-.9 3.7-5.1 1.7-7.3-2.2-2.4-5.2-2.5-7.2-.2zM120 63c-2.2 4.2 1.4 8.6 5.7 6.9 2.7-1 3.8-4.2 2.3-6.9s-6.5-2.7-8 0zM26.6 62.9c-.3.4 2 4.8 5 9.7 6.7 10.6 6.2 10 7.5 8.7.8-.8.3-2.2-1.5-5.1-2.5-3.9-2.5-4.1-.7-6.3 1.6-2 2-2.1 5.5-.9 3.7 1.2 6.6.8 6.6-.8 0-.8-17.7-6.2-20.4-6.2-.8 0-1.7.4-2 .9zm8.2 5c.3.8-.1 1.2-.9.9-.7-.2-1.5-1-1.7-1.7-.3-.8.1-1.2.9-.9.7.2 1.5 1 1.7 1.7zM219.8 65.3c-2.6 2-3.3 6.3-1.4 9.2 3.2 4.9 11.6 2 11.6-4 0-4.6-6.5-7.9-10.2-5.2zM107.3 67.1c-5.5 2-4.2 8.9 1.8 8.9 3.5 0 5.2-3.2 3.6-6.7-1.2-2.7-2.6-3.3-5.4-2.2zM184.7 68.1c-2.9 4.1 1.7 9.4 6.1 7 2.7-1.4 3.2-3.4 1.8-6.2-1.6-3.3-5.9-3.7-7.9-.8zM63.3 74c-4.3 1.8-5.5 6.8-2.3 10 4 4 11 1.4 11-4.1 0-3-.9-4.3-3.7-5.8-2.5-1.3-2.1-1.2-5-.1zM199.6 75.6c-3 2.9-1.1 8.4 2.8 8.4 5.6 0 7.1-7.1 1.9-9.1-3.1-1.2-2.9-1.2-4.7.7zM91.6 76.3C87.9 79 89.8 85 94.5 85c2.9 0 4.5-1.9 4.5-5.2 0-4-4-6-7.4-3.5zM152.7 76.2c-2.4 1.3-2.1 4.5.5 5.4 1.5.4 2.5.1 3.4-1.1 2.3-3.1-.5-6.2-3.9-4.3zM140.4 77.5c-.9 2.3.3 4.5 2.5 4.5 2.6 0 4.5-3.2 2.9-4.8-1.7-1.7-4.8-1.5-5.4.3zM130 78.5c-2.4 2.9 1.5 7 4.5 4.5 1.4-1.2 1-3.9-.9-5.2-1.6-1.1-2.2-1-3.6.7zM162.6 78.6c-1 2.5-.7 3.3 1.3 4.4 1.5.7 2.3.6 3.5-.6 1.2-1.2 1.3-2 .6-3.5-1.3-2.3-4.6-2.5-5.4-.3zM273.6 79.7c-.1.2-2.9.6-6.1.9-6.9.6-8 1.1-6.5 2.9.7.8 2.2 1 5.1.5 3.6-.7 4.2-.5 5.6 1.6 1.4 2.3 1.4 2.6-1.2 6-1.6 2-2.4 4.2-2.1 5.1.4.9.8 1.4 1 1.2 4.5-4.8 14.3-17.6 13.9-18.2-.4-.7-8.9-.7-9.7 0zm3.4 3.8c-1.4 1.7-3 2-3 .6 0-.5.8-1.2 1.8-1.4.9-.3 1.9-.5 2.1-.6.2 0-.2.6-.9 1.4zM14.6 81.7c-.4.9-.5 1.7-.4 1.8 4.8 3.2 17.1 9.4 17.8 9 1-.6 5-7.8 5-9 0-.3-.6-.5-1.4-.5-.7 0-1.9 1.3-2.6 3-1.4 3.4-1.8 3.5-4.5 1.7-1.1-.7-4.5-2.8-7.7-4.5-4.8-2.7-5.7-2.9-6.2-1.5zM119.6 81.6c-1.2 1.2-1.3 2-.5 3.5 1.4 2.7 5.3 2.2 5.7-.8.4-3-3.1-4.9-5.2-2.7zM173.1 81.9c-1.1 2 .4 5.1 2.3 5.1 2.3 0 4.1-3 3-4.7-1.4-2.2-4.2-2.5-5.3-.4zM234.6 82.1c-5 4-2.4 10.9 4.2 10.9 3.3 0 6.2-2.9 6.2-6.3 0-2.1-4.3-6.7-6.3-6.7-.8 0-2.6.9-4.1 2.1zM109.6 86.6c-1.2 1.2-1.3 2-.6 3.5 1.1 2 1.9 2.3 4.4 1.3 1.9-.7 2.1-3.5.4-5.2-1.6-1.6-2.3-1.5-4.2.4zM183 86.5c-1 1.2-1 1.8 0 3 2 2.5 5.5 1.5 5.5-1.5s-3.5-4-5.5-1.5zM211.6 87.1c-1.6 2.4-.9 5.7 1.7 7.3 2.5 1.6 6.7-.8 6.7-3.8 0-5.1-5.6-7.4-8.4-3.5zM78.6 88.1c-2.1 3-2 4.2.2 6.2 2.3 2.1 4.6 2.2 6.6.1 3-2.9 1.7-6.8-2.5-7.9-2.1-.5-3-.2-4.3 1.6zM12 91.3c-2.1 1-5.8 6.5-6 8.8 0 .8 17 7.9 18.8 7.9 2.3 0 1.2-2.5-1.8-3.8-3.7-1.7-3.1-2.8 1.9-3.7 2.2-.4 4.2-1.4 4.5-2.2.9-2.2.6-2.3-3.5-1.4-3.2.7-3.6.6-4.7-1.9-.7-1.5-2.4-3.2-3.8-3.8-3-1.4-2.4-1.4-5.4.1zm6 4.6c1.2 2.4 1.2 3.2.1 4.9-.7 1.1-1.4 1.1-4.2-.3-4.4-2.3-4.2-2-2.9-4.4 1.4-2.7 5.6-2.8 7-.2zM48.5 93.5c-3 2.9-3.1 4.5-.4 7.9 4.7 6 13.8.3 10.3-6.5-2.3-4.6-6.3-5.1-9.9-1.4zM101.4 91.8c-1.9 1.2-2.3 4-.9 5.2 1.9 1.6 5.5.3 5.5-2 0-2.2-3.1-4.2-4.6-3.2zM192.7 91.6c-1.1 1.2-.8 4.1.6 5.3 1.9 1.5 5-.9 4.5-3.5-.3-1.9-3.8-3.1-5.1-1.8zM279.1 96.5c-9.5 3.9-9.9 4.1-8.4 5.6.6.6 1.8.6 3.5 0 2.1-.8 2.8-.5 5.2 2.5 1.9 2.5 3.5 3.4 5.6 3.4 3.4 0 7-3.4 7-6.5 0-3.3-2.1-8.5-3.3-8.5-.7.1-5 1.6-9.6 3.5zm9.7 3.8c.3 2.1-.3 3-2.2 3.9-2.2.9-2.9.8-4.6-.7-2.7-2.5-2.5-3.3 1.3-4.9 4.1-1.8 5.1-1.5 5.5 1.7zM200.9 99.6c-.9 1.1-1 2-.3 3.2 1.5 2.3 2.9 2.5 4.8.7 1.2-1.2 1.3-2.1.6-3.6-1.3-2.3-3.3-2.5-5.1-.3zM222.8 99.1c-3.4 1.9-1.2 8.9 2.8 8.9 1.5 0 5.4-3.5 5.4-4.8 0-.4-.7-1.8-1.6-3-1.6-2.4-3.9-2.7-6.6-1.1zM68.5 101c-4 4.5 2 10.5 6.5 6.5 2.6-2.4 2.5-5-.2-6.9-2.9-2.1-4.1-2-6.3.4zM92.2 100.2c-1.6 1.6-1.5 2.3.3 4.2 1.7 1.7 4 1.2 4.9-1 1.4-3.5-2.5-5.9-5.2-3.2zM245.5 101c-2.4 2.7-2.4 7.6.1 9.5 6.7 5.1 14.4-3.5 8.4-9.5-2.6-2.6-6.2-2.6-8.5 0zM85.5 108.4c-1.4 1-1.5 1.6-.6 3.4 1.3 2.5 3.1 2.8 4.9 1 2.9-2.9-.9-6.9-4.3-4.4zM207.5 109c-.8 2.5.1 4 2.4 4 2.8 0 4.6-2.6 3.1-4.5-1.8-2.1-4.8-1.9-5.5.5zM7.2 109.6C3.7 111 0 116.3 0 119.8c0 1.2.6 3.8 1.4 5.7 3.5 8.4 15.5 7.8 19.2-1 3.8-9.3-4.6-18.6-13.4-14.9zm7.1 3.3c3.2 1.3 5.2 6.7 3.7 10.5-1.1 3-6.2 5.6-9.2 4.8-2.7-.7-5.8-5-5.8-8.2 0-3.2 4.1-8 6.9-8 1.1 0 3.1.4 4.4.9zM141.4 114.2c-3.3 3.6-8.3 9.4-11 12.9-4.8 6.3-13.4 22-13.4 24.6 0 1-1.4 1.2-5.7.8-11.9-1.2-14.1-1.2-15.1-.6-2 1.2 4.2 20.9 9.5 30.1 9 15.6 21.9 21.4 38.2 17.2 3.1-.7 6.5-1 8-.6 14.6 4.1 27.1 1 35.4-8.6 1.9-2.2 5-7.3 7-11.3 3.8-7.6 9.1-24.3 8.3-26.3-.4-1.1-2.9-1.1-15.6 0l-6.5.6-3.3-7.4c-4.3-9.5-10.4-17.8-21.2-29l-8.6-8.8-6 6.4zm26 21.6c2.5 3.7 5.7 9.3 7 12.4l2.5 5.7-5.2 1.7c-2.9.9-6.8 2.5-8.8 3.5-4.4 2.2-11.5 9-12.4 11.9-.7 2.2-2.5 2.7-2.5.6 0-.7-1.8-3.3-3.9-5.7-4.1-4.8-11.7-9-19.4-10.9l-4.6-1.2 1.9-4.9c2.7-7.2 9.9-18.2 18.2-27.8l7.2-8.4 7.7 8.2c4.3 4.5 9.8 11.2 12.3 14.9zm-53.3 20.8c1.2.3 1.8 2.2 2.2 6.4.8 6.9 3 11.7 8.1 17.7 3.6 4.1 16.3 13.3 18.5 13.3.6 0 1.1.4 1.1.9s-2.4 1.1-5.2 1.5c-17.2 2-27.3-6.3-35.4-28.9-1.9-5.3-3.4-10.2-3.4-11 0-1.1 1.3-1.3 6.3-.9 3.4.2 6.9.7 7.8 1zm84.1-.8c1.1.3-5.6 18.9-8.9 24.7-6.6 11.9-15.6 17-28.2 16.1-3.5-.3-6.5-.7-6.7-.9-.3-.2 2.4-2.2 5.8-4.5 12.8-8.2 19.6-17.7 20.5-28.3.6-6.4.7-6.5 7.8-7.1 3-.3 8.3-.3 9.7 0zm-65.5 6.2c10.1 5 14.4 12 14.2 23l-.2 6.9-4.1-2.1c-12.2-6.2-22-17.3-22.6-25.8-.5-5.8-.2-6.3 3.3-5.6 1.7.3 6 2 9.4 3.6zm44.5.6c-.6 8.9-8.3 19-20.2 26.3-2.8 1.7-5 3-5.1 2.8 0-.1-.2-2.7-.3-5.7-.8-12.7 5.4-21.3 18.7-26 2.8-1.1 5.7-1.8 6.2-1.6.6.2.9 2.1.7 4.2z"/><path d="M145.6 124.7c-.4.9-.1 2.3.7 3 1.1 1.1 1.6 1.1 3.2-.1 1.6-1.2 1.7-1.6.6-3-1.7-2.1-3.7-2-4.5.1zM290.3 115c-3.4 3.2-6.3 5.1-8.7 5.5-4 .8-4.8 1.5-3.7 3.3.5.8 1.7.9 4.3.2 2.8-.8 4.9-.6 10.3 1.1 3.7 1.1 6.9 1.8 7.2 1.5 1.2-1.1-1.9-3.4-6.3-4.6l-4.5-1.3 4-4.1c2.5-2.5 3.7-4.6 3.3-5.3-.5-.8-2.4.3-5.9 3.7zM39.8 112.4c-1 .7-2.1 2.7-2.4 4.4-1.2 5.9 6.2 9.6 10.6 5.2 5.5-5.5-2-14.3-8.2-9.6zM231.2 113.6c-4.1 2.9-2.3 8.4 2.8 8.4 3.4 0 5.8-4.3 3.8-6.9-2.8-3.5-3.6-3.7-6.6-1.5zM60.1 116.4c-1.6 2.8-.2 6.1 3 7.1 4.1 1.3 7.8-5.2 4.7-8.3-2.1-2.1-6.3-1.4-7.7 1.2zM213.5 118c-.6 2 .9 5 2.6 5 .4 0 1.5-.7 2.3-1.6 1.2-1.2 1.3-2 .6-3.5-1.4-2.5-4.7-2.4-5.5.1zM79.1 118.8c-.8 1.5-.6 2.3.8 3.6 1.5 1.3 2 1.4 3.5.3 1-.7 1.7-2.2 1.4-3.3-.5-2.6-4.4-3-5.7-.6zM255.2 120.1c-5.4 2-5.4 9.9 0 11.8 2.8 1 3.6.9 5.8-.7 2.9-2.2 3.5-4.8 1.8-8.1-1.6-2.9-4.6-4.1-7.6-3zM218.2 127.2c-1.8 1.8-1.5 3.6.9 4.9 2.9 1.5 5.9-1.2 4.3-3.9-1.4-2.2-3.6-2.6-5.2-1zM75.2 128.2c-3 3 .9 6.9 4.4 4.3 1.5-1.1 1.7-1.7.8-3.2-1.4-2.3-3.6-2.7-5.2-1.1zM235.7 129.8c-2.2 2.4-2.1 4.5.1 6.5 2.4 2.2 4.5 2.1 6.5-.1 2.2-2.4 2.1-4.5-.1-6.5-2.4-2.2-4.5-2.1-6.5.1zM56 131c-2.3 2.3-2.4 3.3-1 6.1 1.2 2.2 5.9 2.6 7.8.7 1.6-1.6 1.5-5.3 0-6.5-2.8-2.1-4.9-2.2-6.8-.3zM34.6 134.1c-4.8 3.8-2.3 10.9 3.9 10.9 3.7 0 6.5-2.8 6.5-6.6 0-2.3-4.2-6.4-6.5-6.4-.7 0-2.4.9-3.9 2.1zM220.5 139c-.8 2.7.1 4 3 4 2.7 0 4.1-2.6 2.4-4.6-1.7-2-4.7-1.7-5.4.6zM72.1 139.8c-.8 1.5-.7 2.3.4 3.2 2.3 1.9 5 .8 5-2 0-3.2-3.9-4.1-5.4-1.2zM256.6 143.4c-4.1 4-3 8.6 2.3 10.4 2.5.9 3.4.7 5.6-.9 4.4-3.6 2.9-10.1-2.7-11.4-2.1-.5-3.3-.1-5.2 1.9zM239.3 145c-4.1 1.6-4.1 6.9.1 8.8 1.8.8 2.9.7 4.5-.5 4.4-3 .4-10.2-4.6-8.3zM53.6 147.9c-1.6 1.7-1.6 2.3-.4 4.8 1.6 3.4 4.3 4.1 6.9 1.7 2.3-2.1 2.4-4.7.3-6.8-2.1-2.1-4.7-2-6.8.3zM6 148.4c-2.7 3.3 1.8 7.2 4.8 4.2 1.3-1.3 1.4-2 .6-3.4-1.5-2.3-3.8-2.6-5.4-.8zM289.1 148.4c-1.7 2-.4 5.6 1.8 5.6 2.8 0 4.7-2.8 3.4-4.8-1.4-2.3-3.7-2.6-5.2-.8zM222.1 149.4c-1.7 2-.3 4.6 2.4 4.6 2.9 0 3.8-1.3 3-4-.7-2.3-3.7-2.6-5.4-.6zM71 150.5c-1 1.2-1 1.8 0 3 2 2.5 5.5 1.5 5.5-1.5s-3.5-4-5.5-1.5zM33.4 156.6c-2 1.9-2.4 3.1-1.9 5.2.9 3.8 2.4 5.2 5.4 5.2 3.9 0 7.1-2.6 7.1-5.8 0-3.3-.8-4.5-3.7-6.1-3.1-1.6-4.1-1.4-6.9 1.5zM221.4 160.5c-.9 2.3.3 4.5 2.4 4.5 2.9 0 4.8-2.6 3.2-4.5-.7-.8-2.1-1.5-3.2-1.5-1 0-2.1.7-2.4 1.5zM71.4 161.5c-1 2.5.4 4.5 3 4.5 2.8 0 3.7-1.7 2.4-4.3-1.1-2.1-4.6-2.3-5.4-.2zM237.3 163c-2.5 2.2-2.1 5.5.9 7.1 4.5 2.4 9.1-2.4 6.3-6.7-1.9-2.9-4.4-3.1-7.2-.4zM55.9 163.3c-3.1 1.6-3.6 5-1 7.6 2.4 2.4 5.8 1.7 7.3-1.5 2.1-4.5-1.9-8.3-6.3-6.1zM257.2 164c-3 1.3-4.6 5.4-3.1 8.3 1.6 2.9 2.8 3.7 6 3.7 5.6 0 8.3-7.7 3.9-11.2-2.5-2-3.4-2.1-6.8-.8zM5.5 171.5c-3.2 3-3.4 8.4-.5 11 2.3 2.1 2.5 1.4.8-3.1-1-2.9-.9-3.6.7-5.4 1-1.1 2.6-2 3.5-2 2.5 0 5.2 3.4 4.8 6.1-.4 3.4 1.4 3.9 2.3.7.8-2.9-2.1-8.7-4.3-8.9-.7 0-2.1-.2-3-.4-.9-.2-2.9.8-4.3 2zM283 170.4c0 .9.8 1.6 1.8 1.7 2.2.1 6.5.9 6.9 1.3.2.1-2.2 1.5-5.3 3-3 1.5-5.3 3.3-5.1 3.9.5 1.5 12.9 3.9 14.1 2.7 1-1 .3-1.4-5.4-2.8l-3.5-.9 5.3-2.7c6.5-3.3 6.7-5.1.7-5.9-2.5-.4-5.6-.9-7-1.3-1.9-.5-2.5-.2-2.5 1zM219.5 171c-1.2 2 .6 5.1 2.7 4.8 3-.4 4.8-3.6 2.8-4.8-2-1.3-4.7-1.3-5.5 0zM73.5 172c-1.1 1.7.5 5 2.4 5 2.8 0 4.6-2.6 3.1-4.5-1.4-1.7-4.6-2-5.5-.5zM36.1 178.7c-2.4 3-2 5.8 1.1 8.5 2.8 2.5 5.4 2.2 8.3-.6 2.8-2.8 2.6-6.2-.6-8.9-3.1-2.5-6.4-2.1-8.8 1zM234.2 178.6c-2.7 1.9-2.8 4.5-.2 6.9 4.5 4 10.5-2 6.5-6.5-2.2-2.4-3.4-2.5-6.3-.4zM59.1 179.6c-2.7 1.9-2.7 5.9 0 7.7 2.5 1.8 5.6 1.1 7-1.5 2.3-4.4-2.9-9-7-6.2zM217.3 180.7c-1.9.7-1.6 5 .3 5.7 2 .8 4.4-1.1 4.4-3.4 0-1.4-2.3-3.4-3.3-2.9-.1 0-.8.3-1.4.6zM77.7 181.7c-1.3 1.3-.7 5.1.9 5.7 2 .8 4.4-1.1 4.4-3.4s-3.7-3.9-5.3-2.3zM251.7 185.6c-4.7 2.5-4.5 8.8.3 11.4 6.3 3.4 12.5-6.2 6.9-10.6-2.6-2-4.5-2.2-7.2-.8zM9.6 187.5c-3.2 3-3.4 7.2-.5 10.9 5 6.3 14.5.4 11.8-7.3-1.9-5.4-7.5-7.2-11.3-3.6zm7.8 2.1c2.2 2.2 2 6-.5 7.8-2.8 1.9-6.1.7-7.4-2.9-.8-2.3-.6-3 1.4-4.6 2.8-2.3 4.5-2.4 6.5-.3zM281.9 186.7c-2 .5-4.7 5.3-4.3 7.6.5 3.5 1.3 4.6 4.2 6.1 6.1 3.2 12.8-4.1 9.6-10.5-1.8-3.6-4.6-4.6-9.5-3.2zm5.9 2.9c2.9 2 2.9 5.9-.2 7.9-5.4 3.6-10.3-2.8-5.6-7.5 2.4-2.4 2.9-2.4 5.8-.4zM211.1 191.9c-1.5 2.6 2.1 6 4.4 4.1 2-1.6 1.9-4.6-.1-5.4-2.5-1-3.3-.7-4.3 1.3zM82.7 191.6c-1.3 1.4-.7 4.3 1.2 5.3 2.3 1.3 4.5-.8 3.9-3.6-.3-1.8-3.8-3-5.1-1.7zM228.1 193.7c-2.3 1.6-2.8 5.2-.9 7.1 1.9 1.9 6.2 1.4 7.5-.8 2.8-4.4-2.3-9.3-6.6-6.3zM65.6 195.4c-2.9 2.8-2.5 6.3.8 7.5 2.9 1.1 5.2.3 6.4-2.3 1.1-2.6.1-5-2.8-6.6-1.6-.9-2.5-.6-4.4 1.4zM43.6 199.2c-2.1 2.9-2 5.1.2 7.8 3.6 4.4 11.2 1.7 11.2-4 0-5.6-8.2-8.3-11.4-3.8zM205.1 200.3c-2.5 3.1 2 7.1 4.8 4.2 1.2-1.2 1.3-1.9.5-3.3-1.5-2.2-3.8-2.6-5.3-.9zM88.6 201.5c-.9 2.4.4 4.5 2.9 4.5 1.3 0 2.5-.7 2.9-1.5.9-2.4-.4-4.5-2.9-4.5-1.3 0-2.5.7-2.9 1.5zM18.7 203.6c-2.6 1.4-5 3.1-5.4 3.9-1 2.7.6 6.4 3.1 7.1 3.1.7 13.1-3.5 11.7-4.9-.7-.7-2.6-.3-5.8 1.1-3.9 1.7-5 1.8-6.1.8-2-2-.6-3.9 4.3-5.9 4.3-1.8 5.4-3 3.8-4-.5-.3-3 .6-5.6 1.9zM274.4 202.1c-.8 1.3-.9 1.3 6.1 4.2 5.5 2.3 8.8 2.6 6.8.6-1.9-1.9-12.2-5.8-12.9-4.8zM243.3 205.1c-4.6 1.7-5.5 6.8-1.9 10.4 2.7 2.7 5.7 2.6 8.7-.1 4.9-4.4-.6-12.6-6.8-10.3zM218.6 207.9c-4.2 4.6 1 10.6 6.3 7.2 1.5-1 1.8-5.8.4-7.2-1.8-1.8-5.1-1.8-6.7 0zM270.7 209.6c-1.9 3.8-1.3 6.6.7 3.9 1.1-1.6 1.6-1.5 6.3.8 4.6 2.4 6.3 2.6 6.3.7 0-.4-2.3-1.7-5-3-4-1.9-4.9-2.7-4.4-4.2 1-3.4-2.2-1.9-3.9 1.8zM75.9 208.4c-1.7.8-2.4 2-2.4 4 0 3.5 2.3 5.1 5.7 4.3 2.8-.7 3.9-3.2 2.7-6.3-1-2.8-3.1-3.5-6-2zM197.7 207.6c-1.3 1.3-.7 5.2.9 5.8 2.2.9 4.6-1.3 4.2-3.8-.3-2.1-3.7-3.4-5.1-2zM96.4 209.5c-.9 2.3.3 4.5 2.5 4.5 2.6 0 4.5-3.2 2.9-4.8-1.7-1.7-4.8-1.5-5.4.3zM24.5 216.6c-2.2 1.4-4.7 2.9-5.5 3.4-1 .6-1.2 1.2-.5 1.9.8.8 2.2.3 4.9-1.5l3.8-2.6-.7 2.3c-.4 1.3-1.4 3.6-2.1 5.1-1.7 3.3-1.8 5.8-.2 5.8.9 0 9-4.6 11.7-6.7.3-.2 0-.8-.5-1.3-.6-.6-2.3-.1-4.7 1.5-2 1.4-3.7 2.3-3.7 2.1 0-.3.9-2.8 2-5.6 3.1-8 2.5-8.6-4.5-4.4zM106.2 215.2c-1.5 1.5-1.6 4.5-.2 5.3.6.3 1.9.3 3 0 2.4-.8 2.7-5 .4-5.9-2-.8-1.8-.8-3.2.6zM188.4 216.2c-.4 1.5-.1 2.5 1.2 3.5 1.6 1.1 2.1 1.1 3.8-.6 1.6-1.7 1.7-2.3.6-3.5-1.8-2.3-4.8-2-5.6.6zM55.4 217.5c-2.6 2.6-2.5 5.6.2 8.6 3.7 4.1 10.7 1 10.7-4.7 0-5.6-6.8-8-10.9-3.9zM267 217c0 .5 2 2.3 4.5 4 7.5 5.1 4.8 9-3 4.4-5.9-3.4-8.1-2-2.4 1.5 2.4 1.5 5.1 3 6 3.3 2.6 1 5.9-1.9 5.9-5.2 0-2.2-.9-3.4-4.7-5.9-4.9-3.2-6.3-3.7-6.3-2.1zM207.8 219.2c-2.4 2-2.8 4.4-1.2 6.7 2.5 3.6 7 2.6 8.6-1.9 1.2-3.5-4.5-7.1-7.4-4.8zM85.9 221.1c-3.4 3.4-.9 8.2 4.1 7.7 1.7-.2 2.8-1.2 3.5-3.2.8-2.4.6-3.1-1.4-4.7-2.9-2.4-3.6-2.4-6.2.2zM179.6 220.5c-1.2 1.2-1.3 2.1-.6 3.6 1.3 2.3 3.3 2.5 5.1.3.9-1.1 1-2 .3-3.2-1.5-2.3-2.9-2.5-4.8-.7zM115.1 221.4c-1.7 2-.3 4.6 2.4 4.6 2.9 0 3.8-1.3 3-4-.7-2.3-3.7-2.6-5.4-.6zM228.6 224.1c-3.1 2.4-3.3 5.7-.7 8.7 2.3 2.7 7.2 2.9 9.4.4 3.5-3.8 1.1-10.1-4.1-10.9-1.1-.1-3.2.7-4.6 1.8zM168.9 224.6c-2.5 3 2 7 4.8 4.1 1.1-1.1 1.2-2 .5-3.3-1.2-2.2-3.8-2.6-5.3-.8zM125.2 225.3c-1.6 1.9.8 5 3.4 4.5 2.8-.5 2.6-5.2-.2-5.6-1.1-.2-2.6.3-3.2 1.1zM136.1 227.4c-1.5 1.7-.5 4.3 1.9 4.9 2.5.6 4.3-1.6 3.5-4.3-.7-2.3-3.7-2.7-5.4-.6zM158 227.5c-1 1.2-1 1.8 0 3 2 2.5 5.5 1.5 5.5-1.5s-3.5-4-5.5-1.5zM147 228.5c-1 1.2-1 1.8 0 3 2 2.5 5.5 1.5 5.5-1.5s-3.5-4-5.5-1.5zM35.6 229.6c-1 1-1.3 2.5-.9 4.4.4 2.2.1 3.1-1.1 3.6-2.4.9-4.3-1.1-2.7-2.9.9-1.2.8-1.6-.4-2-2.4-1-3.1 3.9-1 6.3 3.6 4 7.5 1.8 7.5-4.2 0-4.2 1.4-5.1 2.4-1.6.5 1.9.8 2 1.5.9 2.1-3.2-2.7-7.2-5.3-4.5zM193.9 229.6c-4.2 5.1 1.8 11.5 6.5 6.8 2.2-2.2 2-5-.6-6.8-2.8-2-4.2-2-5.9 0zM99.8 230.2c-2.5 2.1-2.8 4.4-.7 6.7 2.2 2.4 3.2 2.5 6 1.1 1.2-.7 1.9-2.1 1.9-3.8 0-4.7-3.7-6.7-7.2-4zM72.3 232c-3.2 1.3-4.5 4.2-3.2 7.8 1.2 3.6 4.5 5.3 7.9 4 3-1.1 4-2.5 4-5.9 0-4.7-4.3-7.7-8.7-5.9zM257 231.9c0 .4 2.5 2.7 5.6 5l5.7 4.3 2.3-2.9c1.4-1.7 1.9-3.2 1.3-3.7-.5-.6-1.4-.3-2.3 1-1.4 1.8-1.6 1.8-6-1.4-4.7-3.2-6.6-3.9-6.6-2.3zM180.4 236c-2.4.9-3.6 5-2.2 7.4 1.1 2 6.1 2.1 7.8.2 2.9-3.6-1.3-9.3-5.6-7.6zM39.3 240.8l-5.2 4.7 2.9 3.2c1.7 1.9 3.2 2.8 3.6 2.2.3-.6-.2-1.9-1.2-3-1.3-1.5-1.5-2.2-.6-3.1.9-.9 1.7-.6 3.5 1 3.1 2.9 4.2 1.7 1.7-1.8-1.8-2.5-1.8-2.8-.3-3.4 1-.4 2.5.2 4 1.5 1.7 1.7 2.3 1.9 2.3.8 0-.9-1.2-2.7-2.7-4.2l-2.8-2.6-5.2 4.7zM114.8 237.2c-2.6 2.2-2.9 4.7-.8 6.8 1.1 1.1 2.7 2 3.5 2 2.4 0 5.5-3.7 4.8-5.7-.7-2.1-3.2-4.3-4.8-4.3-.6 0-1.8.6-2.7 1.2zM212 239.2c-2.5 2.8-2.6 6.2 0 8.8 3.9 3.9 11 1.1 11-4.3 0-2.8-.9-4.1-3.7-5.6-3.2-1.6-5-1.4-7.3 1.1zM250.1 240.6c-3 3.8-2.7 7.8.6 10.4 5 3.9 12.3.2 12.3-6.2 0-6.5-8.8-9.4-12.9-4.2zm8.7.9c1.4 1.1 2 2.3 1.8 3.8-.3 1.2-.5 2.5-.5 2.8-.1.3-1.1 1.1-2.4 1.6-2.4 1.1-5.4.2-6.9-2.1-1.6-2.3 1.7-7.6 4.7-7.6.6 0 2 .7 3.3 1.5zM132 240.6c-4.8 1.3-3.9 8.6 1.2 9.2 3.5.4 6.2-3.2 4.6-6.2-1.1-2.1-2.8-3.7-3.8-3.5-.3.1-1.2.3-2 .5zM163.3 241.2c-2.1 2.8-2.2 4.9-.3 6.8 3.4 3.4 8 1.7 8-3 0-4.2-5.4-6.8-7.7-3.8zM149 241.8c-2.1.6-4 3.2-4 5.4 0 2.7 4.4 5.2 6.9 3.9 5-2.7 2.5-11-2.9-9.3zM88.6 246.1c-3.1 2.5-3.4 6.1-.6 8.9 4.2 4.2 11 1.3 11-4.6 0-2.3-4.2-6.4-6.5-6.4-.7 0-2.4.9-3.9 2.1zM47.5 249.6c-2.2 2.5-4.2 4.7-4.5 5-.2.3.8 1.6 2.2 2.9 3 2.8 5.1 1.5 2.4-1.4-1.5-1.6-1.3-2 2.4-5.6 2.2-2.2 4-4.3 4-4.7 0-2-2.8-.3-6.5 3.8zM195.8 248.8c-4 .8-5.5 7.9-2.4 11 3.1 3.2 10 .9 10.9-3.5.8-4.2-4-8.5-8.5-7.5zM239.1 251.8c-.6 1.1-.6 2.4.1 3.5.8 1.5 1.7 1.7 4.8 1.2 2.4-.4 4.1-.2 4.5.5 1.1 1.7-1.3 3.9-3.7 3.2-1.5-.3-1.9-.1-1.6.9 1.2 3.5 7.8 1.1 7.8-2.9 0-3.8-3-5.3-7.9-4.1-.7.2-1.6-.2-1.9-1-.3-1 0-1.2 1.2-.8 1 .4 1.6.1 1.6-.8 0-2.1-3.7-1.9-4.9.3zM55.1 256.5c-2.7 2.8-4.1 5.2-3.7 6.1.4 1.1 1.7.2 5.1-3.6 4.3-4.9 5.4-7 3.7-7-.5 0-2.8 2-5.1 4.5zM111.5 253.8c-7.7 1.6-6.9 12.4 1 12.4 3.1 0 6.5-2.8 6.5-5.4 0-4.4-3.7-7.8-7.5-7zM61.1 258.5c-1.3 1.9-3.2 4.4-4.2 5.7-1.3 1.5-1.6 2.5-.9 3.2.7.7 1.5.4 2.4-.9 4.7-6.5 4.5-6.5 4.6.2 0 4 .4 6.3 1.3 6.6 1.3.4 8.6-8.9 8.7-11.1 0-2.2-1.7-1.3-4.1 2.3-1.3 1.9-2.6 3.5-3 3.5-.3 0-.4-2.1-.3-4.8.2-5-.3-8.2-1.4-8.2-.4 0-1.8 1.6-3.1 3.5zM173 258c-4.1 4.1-1.4 11 4.3 11 3.2 0 6.7-3.2 6.7-6 0-2.7-4.3-7-7-7-1.1 0-2.9.9-4 2zM230.6 258.5l-3 2.4 4.3 5.5c3.4 4.6 4.5 5.4 5.9 4.6 2.7-1.5 5.2-3.7 5.2-4.4 0-1.1-2.3-.6-4 .9-1.5 1.4-1.8 1.4-3 0-1.1-1.3-1-1.8.8-3.1 2.3-1.6 2.9-3.4 1.1-3.4-.6 0-1.7.7-2.6 1.5-1.2 1.3-1.8 1.3-3 .3-1.3-1.1-1.2-1.5 1-3.4 1.4-1.2 2.3-2.5 2-2.8-1-.9-1.6-.7-4.7 1.9zM130.7 259.6c-4.9 2.6-4.4 9.4.9 11.4 2.9 1.1 6.9-.1 7.8-2.5 2.4-6.4-2.9-11.9-8.7-8.9zM153.3 260c-2.3 1-4.3 3.9-4.3 6.5s4.5 6.5 7.1 6c6-1.2 7.9-7.8 3.3-11.4-3-2.3-3-2.3-6.1-1.1zM221.4 265c-1.2.5-2.5 1.3-2.8 1.9-.7 1.1 6.1 12.1 7.5 12.1 1.3 0 1.1-2.4-.3-3.8-1.5-1.5.4-1.7 3.1-.3 1 .6 2.3.6 3.1.1 1.1-.7.9-1.1-1.2-1.9-2-.7-2.5-1.5-2.1-3.4.4-1.8-.2-2.9-1.8-4.1-2.6-1.8-2.6-1.8-5.5-.6zm4.9 3.4c.3.8-.1 2-.9 2.7-1.2 1-1.7.8-2.9-.7-.8-1-1.5-2.2-1.5-2.7 0-1.3 4.8-.7 5.3.7zM77.4 266.8c-2.6.4-5.4 3.3-5.8 5.9-.7 4.3 4.1 9.2 8.4 8.4 2.2-.4 4.1-3.4 2.9-4.6-.7-.7-1.5-.4-2.3.7-1.6 2.2-3 2.3-5 .2-3.1-3-.9-8.4 3.5-8.4 1 0 2.8.9 3.9 2 2.7 2.7 4.4 2.7 3 0-1.3-2.5-5.8-4.7-8.6-4.2zM205.8 273.2c-4 1.9-5.3 4.4-1.7 3.3 1.7-.6 2.3.1 4.1 4.4 1.2 2.8 2.8 5.1 3.5 5.1 1.8 0 1.6-.7-1.1-6.3-2.1-4.3-2.2-4.8-.7-5.7 1-.6 1.2-1.2.6-1.8-.6-.5-2.5-.1-4.7 1zM96 277.5c-.7.9-1 1.8-.7 2.2.4.3-.4 1.4-1.7 2.4-1.6 1.3-2.2 2.6-1.9 3.9 1 3.9 6.2 4.8 10 1.8 1.3-1 .7-3.8-.9-3.8-.5 0-.6.4-.3 1 .8 1.4-.8 1.3-2.2-.1-1.5-1.5-3.6-.1-2.8 2 .5 1.2.3 1.3-.6.4-1.8-1.8-.3-4.3 2.7-4.3 2.6 0 2.6-.1 1-1.9-1.3-1.5-1.4-2.1-.5-2.7.7-.4 1.5-.2 1.7.4.5 1.7 2.2 1.5 2.2-.2 0-1.3-2-2.6-4-2.6-.4 0-1.3.7-2 1.5zM194 278.3c-7.4 3.7-4.6 13.7 4 13.7 2.7 0 6.5-3.4 5.5-5-.6-1.1-1-1-1.9.2-2 2.7-5.3 3.1-7.5.9-1.2-1.2-2.1-2.7-2.1-3.4 0-2.4 2.5-4.8 5.5-5.1 4.2-.5 4.2-.5 2.5-1.6-2-1.3-3-1.2-6 .3zM183.4 284.2c1.5 7.5 2.8 10.8 4.1 10.8.8 0 1.3-.6 1-1.3-.2-.6-1.1-3.8-2-7-1.7-6.1-4.2-8.2-3.1-2.5zM117 283.3c-7.6 3.8-4.1 14.6 4.4 13.5 3.7-.4 3.3-2.3-.5-2.3-3 0-5.9-2.5-5.9-5.1 0-3.3 6.9-6 8.5-3.4.8 1.3 3.5 1.3 3.5-.1 0-.5-1.6-1.7-3.5-2.5-4.1-1.7-3.4-1.7-6.5-.1zM173.5 284c-.3.6-.3 1.9 0 3 .6 1.8 1.3 5.1 1.9 9 .4 2.3 7.6 1.2 7.6-1.2 0-.6-1-.8-2.4-.4-2.7.7-2.9.2-4.2-6.7-.7-3.9-1.8-5.4-2.9-3.7zM165.2 284.7c-2.4.5-2.5.8-.7 10.1.2.9.4 2.3.4 3 .1.8.7 1.2 1.4.9.7-.2 1.1-1.5.9-3-.2-1.5.1-2.8.7-2.8.6-.1 1.6-.2 2.1-.3 2-.2.9-2.1-1.3-2.1s-3.9-3.4-1.8-3.6c.6-.1 1.6-.2 2.3-.3.6 0 1.3-.7 1.6-1.4.4-1.2-1.1-1.3-5.6-.5zM131.1 287.6c-2.3 3-2.6 6.1-.8 8.5 5.7 7.4 17.4 1.1 13.2-7-2.5-5-9.1-5.7-12.4-1.5zm9.1 1.1c2.2 2 2.3 4.7.2 6.7-2.2 2.2-6 2-7.8-.5-3.5-5 3.1-10.3 7.6-6.2zM157.9 287.2c-.1 1.3 0 3.5.1 5 .1 1.6 0 2.8-.2 2.8-.3 0-1.9-2-3.8-4.5-4.9-6.5-6.1-6-5.9 2.5.1 5.4.5 7 1.6 7s1.3-1.1 1-4.5c-.2-2.5-.1-4.5.2-4.5.3 0 2.1 2.1 4 4.6 1.9 2.4 3.9 4.3 4.5 4.1 1-.3 1.2-4.5.7-12.5 0-1.2-.5-2.2-1.1-2.2-.5 0-1 1-1.1 2.2z"/></svg>